name ./resultDataOpenSim/trcMotMarkerGrf/sub09/grf-12-01.mot
datacolumns 19
datarows 17
range 1.02400000 1.08800000
endheader

                time	     ground_force_vx	     ground_force_vy	     ground_force_vz	     ground_force_px	     ground_force_py	     ground_force_pz	   l_ground_force_vx	   l_ground_force_vy	   l_ground_force_vz	   l_ground_force_px	   l_ground_force_py	   l_ground_force_pz	     ground_torque_x	     ground_torque_y	     ground_torque_z	   l_ground_torque_x	   l_ground_torque_y	   l_ground_torque_z	
          1.02400000	          0.00000000	          0.00000000	          0.00000000	          0.00000000	          0.00000000	          0.00000000	         24.07796199	        528.51666718	         27.11798319	          0.13038327	         -0.02500000	         -0.01066679	          0.00000000	          0.00000000	          0.00000000	          0.00000000	         -3.23944998	          0.00000000	
          1.02800000	          0.00000000	          0.00000000	          0.00000000	          0.00000000	          0.00000000	          0.00000000	         27.69282670	        534.16095253	         27.09213159	          0.13099496	         -0.02500000	         -0.01060563	          0.00000000	          0.00000000	          0.00000000	          0.00000000	         -3.36326065	          0.00000000	
          1.03200000	          0.00000000	          0.00000000	          0.00000000	          0.00000000	          0.00000000	          0.00000000	         31.43409391	        539.81461461	         26.29406016	          0.13161982	         -0.02500000	         -0.01049567	          0.00000000	          0.00000000	          0.00000000	          0.00000000	         -3.56856400	          0.00000000	
          1.03600000	          0.00000000	          0.00000000	          0.00000000	          0.00000000	          0.00000000	          0.00000000	         35.33693177	        545.41578537	         24.85491714	          0.13229604	         -0.02500000	         -0.01031882	          0.00000000	          0.00000000	          0.00000000	          0.00000000	         -3.84954030	          0.00000000	
          1.04000000	          0.00000000	          0.00000000	          0.00000000	          0.00000000	          0.00000000	          0.00000000	         39.44507857	        550.87708776	         22.98063338	          0.13303121	         -0.02500000	         -0.01008754	          0.00000000	          0.00000000	          0.00000000	          0.00000000	         -4.19275465	          0.00000000	
          1.04400000	          0.00000000	          0.00000000	          0.00000000	          0.00000000	          0.00000000	          0.00000000	         43.77499966	        556.16818738	         20.89976658	          0.13382540	         -0.02500000	         -0.00981721	          0.00000000	          0.00000000	          0.00000000	          0.00000000	         -4.57924709	          0.00000000	
          1.04800000	          0.00000000	          0.00000000	          0.00000000	          0.00000000	          0.00000000	          0.00000000	         48.30644530	        561.37151384	         18.81555685	          0.13467556	         -0.02500052	         -0.00951332	          0.00000000	          0.00000000	          0.00000000	          0.00000000	         -4.98684315	          0.00000000	
          1.05200000	          0.00000000	          0.00000000	          0.00000000	          0.00000000	          0.00000000	          0.00000000	         53.00316583	        566.65963402	         16.87229589	          0.13556958	         -0.02500084	         -0.00917987	          0.00000000	          0.00000000	          0.00000000	          0.00000000	         -5.39246241	          0.00000000	
          1.05600000	          0.00000000	          0.00000000	          0.00000000	          0.00000000	          0.00000000	          0.00000000	         57.84019089	        572.24053780	         15.14601080	          0.13648750	         -0.02500081	         -0.00882879	          0.00000000	          0.00000000	          0.00000000	          0.00000000	         -5.77421697	          0.00000000	
          1.06000000	          0.00000000	          0.00000000	          0.00000000	          0.00000000	          0.00000000	          0.00000000	         62.81360974	        578.30609663	         13.66899007	          0.13739573	         -0.02500100	         -0.00848680	          0.00000000	          0.00000000	          0.00000000	          0.00000000	         -6.11303911	          0.00000000	
          1.06400000	          0.00000000	          0.00000000	          0.00000000	          0.00000000	          0.00000000	          0.00000000	         67.92148665	        585.01632097	         12.47317739	          0.13824800	         -0.02500100	         -0.00819055	          0.00000000	          0.00000000	          0.00000000	          0.00000000	         -6.39370216	          0.00000000	
          1.06800000	          0.00000000	          0.00000000	          0.00000000	          0.00000000	          0.00000000	          0.00000000	         73.13149721	        592.51840688	         11.61551473	          0.13900886	         -0.02500100	         -0.00796807	          0.00000000	          0.00000000	          0.00000000	          0.00000000	         -6.60533916	          0.00000000	
          1.07200000	          0.00000000	          0.00000000	          0.00000000	          0.00000000	          0.00000000	          0.00000000	         78.36850612	        600.92637601	         11.16944154	          0.13966488	         -0.02500100	         -0.00783274	          0.00000000	          0.00000000	          0.00000000	          0.00000000	         -6.74168023	          0.00000000	
          1.07600000	          0.00000000	          0.00000000	          0.00000000	          0.00000000	          0.00000000	          0.00000000	         83.53445291	        610.24953843	         11.19653936	          0.14021634	         -0.02500100	         -0.00779018	          0.00000000	          0.00000000	          0.00000000	          0.00000000	         -6.80113013	          0.00000000	
          1.08000000	          0.00000000	          0.00000000	          0.00000000	          0.00000000	          0.00000000	          0.00000000	         88.53535485	        620.35706479	         11.71323522	          0.14067178	         -0.02500100	         -0.00783878	          0.00000000	          0.00000000	          0.00000000	          0.00000000	         -6.78660436	          0.00000000	
          1.08400000	          0.00000000	          0.00000000	          0.00000000	          0.00000000	          0.00000000	          0.00000000	         93.29664538	        631.01319797	         12.66915589	          0.14105084	         -0.02500100	         -0.00796458	          0.00000000	          0.00000000	          0.00000000	          0.00000000	         -6.70491940	          0.00000000	
          1.08800000	          0.00000000	          0.00000000	          0.00000000	          0.00000000	          0.00000000	          0.00000000	         97.77666663	        641.93764402	         13.95868938	          0.14137636	         -0.02500100	         -0.00813879	          0.00000000	          0.00000000	          0.00000000	          0.00000000	         -6.56565386	          0.00000000	
